<mxfile host="app.diagrams.net" modified="2022-11-17T00:39:07.940Z" agent="5.0 (Windows NT 10.0; Win64; x64) AppleWebKit/537.36 (KHTML, like Gecko) Chrome/107.0.0.0 Safari/537.36 Edg/107.0.1418.42" etag="M8nswoQdRiSz46sFpHWz" version="20.4.0" type="github">
  <diagram id="_uRnkrO4nwbBH6i5RHHK" name="Page-1">
    <mxGraphModel dx="1422" dy="778" grid="1" gridSize="10" guides="1" tooltips="1" connect="1" arrows="1" fold="1" page="1" pageScale="1" pageWidth="850" pageHeight="1100" math="0" shadow="0">
      <root>
        <mxCell id="0" />
        <mxCell id="1" parent="0" />
        <mxCell id="oDPLvCCYhihSEAugSSSw-6" value="" style="edgeStyle=orthogonalEdgeStyle;rounded=0;orthogonalLoop=1;jettySize=auto;html=1;" edge="1" parent="1" source="oDPLvCCYhihSEAugSSSw-4" target="oDPLvCCYhihSEAugSSSw-5">
          <mxGeometry relative="1" as="geometry" />
        </mxCell>
        <mxCell id="oDPLvCCYhihSEAugSSSw-17" value="" style="edgeStyle=orthogonalEdgeStyle;rounded=0;orthogonalLoop=1;jettySize=auto;html=1;" edge="1" parent="1" source="oDPLvCCYhihSEAugSSSw-4" target="oDPLvCCYhihSEAugSSSw-8">
          <mxGeometry relative="1" as="geometry">
            <Array as="points">
              <mxPoint x="455" y="495" />
            </Array>
          </mxGeometry>
        </mxCell>
        <mxCell id="oDPLvCCYhihSEAugSSSw-4" value="F0C0" style="ellipse;whiteSpace=wrap;html=1;aspect=fixed;" vertex="1" parent="1">
          <mxGeometry x="430" y="530" width="50" height="50" as="geometry" />
        </mxCell>
        <mxCell id="oDPLvCCYhihSEAugSSSw-5" value="" style="ellipse;whiteSpace=wrap;html=1;aspect=fixed;" vertex="1" parent="1">
          <mxGeometry x="520" y="530" width="50" height="50" as="geometry" />
        </mxCell>
        <mxCell id="oDPLvCCYhihSEAugSSSw-19" value="" style="edgeStyle=orthogonalEdgeStyle;rounded=0;orthogonalLoop=1;jettySize=auto;html=1;fontSize=7;" edge="1" parent="1" source="oDPLvCCYhihSEAugSSSw-8" target="oDPLvCCYhihSEAugSSSw-18">
          <mxGeometry relative="1" as="geometry" />
        </mxCell>
        <mxCell id="oDPLvCCYhihSEAugSSSw-8" value="&lt;font style=&quot;font-size: 7px;&quot;&gt;F10000&lt;br&gt;C10000&lt;br&gt;&lt;/font&gt;" style="ellipse;whiteSpace=wrap;html=1;aspect=fixed;" vertex="1" parent="1">
          <mxGeometry x="470" y="470" width="40" height="40" as="geometry" />
        </mxCell>
        <mxCell id="oDPLvCCYhihSEAugSSSw-10" value="" style="ellipse;whiteSpace=wrap;html=1;aspect=fixed;" vertex="1" parent="1">
          <mxGeometry x="410" y="620" width="50" height="50" as="geometry" />
        </mxCell>
        <mxCell id="oDPLvCCYhihSEAugSSSw-11" value="" style="ellipse;whiteSpace=wrap;html=1;aspect=fixed;direction=south;rotation=-90;" vertex="1" parent="1">
          <mxGeometry x="505" y="600" width="50" height="50" as="geometry" />
        </mxCell>
        <mxCell id="oDPLvCCYhihSEAugSSSw-21" value="" style="edgeStyle=orthogonalEdgeStyle;rounded=0;orthogonalLoop=1;jettySize=auto;html=1;fontSize=7;" edge="1" parent="1" source="oDPLvCCYhihSEAugSSSw-18" target="oDPLvCCYhihSEAugSSSw-20">
          <mxGeometry relative="1" as="geometry" />
        </mxCell>
        <mxCell id="oDPLvCCYhihSEAugSSSw-18" value="&lt;font style=&quot;font-size: 7px;&quot;&gt;F10000&lt;br&gt;C01000&lt;br&gt;&lt;/font&gt;" style="ellipse;whiteSpace=wrap;html=1;aspect=fixed;" vertex="1" parent="1">
          <mxGeometry x="530" y="470" width="40" height="40" as="geometry" />
        </mxCell>
        <mxCell id="oDPLvCCYhihSEAugSSSw-23" value="" style="edgeStyle=orthogonalEdgeStyle;rounded=0;orthogonalLoop=1;jettySize=auto;html=1;fontSize=7;entryX=0;entryY=0.5;entryDx=0;entryDy=0;" edge="1" parent="1" source="oDPLvCCYhihSEAugSSSw-20" target="oDPLvCCYhihSEAugSSSw-22">
          <mxGeometry relative="1" as="geometry" />
        </mxCell>
        <mxCell id="oDPLvCCYhihSEAugSSSw-20" value="&lt;font style=&quot;font-size: 7px;&quot;&gt;F10000&lt;br&gt;C00100&lt;br&gt;&lt;/font&gt;" style="ellipse;whiteSpace=wrap;html=1;aspect=fixed;" vertex="1" parent="1">
          <mxGeometry x="590" y="470" width="40" height="40" as="geometry" />
        </mxCell>
        <mxCell id="oDPLvCCYhihSEAugSSSw-25" value="" style="edgeStyle=orthogonalEdgeStyle;rounded=0;orthogonalLoop=1;jettySize=auto;html=1;fontSize=7;" edge="1" parent="1" source="oDPLvCCYhihSEAugSSSw-22" target="oDPLvCCYhihSEAugSSSw-24">
          <mxGeometry relative="1" as="geometry" />
        </mxCell>
        <mxCell id="oDPLvCCYhihSEAugSSSw-22" value="&lt;font style=&quot;font-size: 7px;&quot;&gt;F10000&lt;br&gt;C00010&lt;br&gt;&lt;/font&gt;" style="ellipse;whiteSpace=wrap;html=1;aspect=fixed;" vertex="1" parent="1">
          <mxGeometry x="660" y="460" width="40" height="40" as="geometry" />
        </mxCell>
        <mxCell id="oDPLvCCYhihSEAugSSSw-35" value="" style="edgeStyle=orthogonalEdgeStyle;rounded=0;orthogonalLoop=1;jettySize=auto;html=1;fontSize=7;" edge="1" parent="1" source="oDPLvCCYhihSEAugSSSw-24" target="oDPLvCCYhihSEAugSSSw-34">
          <mxGeometry relative="1" as="geometry" />
        </mxCell>
        <mxCell id="oDPLvCCYhihSEAugSSSw-24" value="&lt;font style=&quot;font-size: 7px;&quot;&gt;F10000&lt;br&gt;C00001&lt;br&gt;&lt;/font&gt;" style="ellipse;whiteSpace=wrap;html=1;aspect=fixed;" vertex="1" parent="1">
          <mxGeometry x="710" y="410" width="40" height="40" as="geometry" />
        </mxCell>
        <mxCell id="oDPLvCCYhihSEAugSSSw-50" value="" style="edgeStyle=orthogonalEdgeStyle;rounded=0;orthogonalLoop=1;jettySize=auto;html=1;fontSize=7;entryX=0.5;entryY=1;entryDx=0;entryDy=0;" edge="1" parent="1" source="oDPLvCCYhihSEAugSSSw-27" target="oDPLvCCYhihSEAugSSSw-49">
          <mxGeometry relative="1" as="geometry" />
        </mxCell>
        <mxCell id="oDPLvCCYhihSEAugSSSw-27" value="&lt;font style=&quot;font-size: 7px;&quot;&gt;F00100&lt;br&gt;C00001&lt;br&gt;&lt;/font&gt;" style="ellipse;whiteSpace=wrap;html=1;aspect=fixed;" vertex="1" parent="1">
          <mxGeometry x="560" y="200" width="40" height="40" as="geometry" />
        </mxCell>
        <mxCell id="oDPLvCCYhihSEAugSSSw-40" value="" style="edgeStyle=orthogonalEdgeStyle;rounded=0;orthogonalLoop=1;jettySize=auto;html=1;fontSize=7;" edge="1" parent="1" source="oDPLvCCYhihSEAugSSSw-29" target="oDPLvCCYhihSEAugSSSw-27">
          <mxGeometry relative="1" as="geometry" />
        </mxCell>
        <mxCell id="oDPLvCCYhihSEAugSSSw-29" value="&lt;font style=&quot;font-size: 7px;&quot;&gt;F01000&lt;br&gt;C00010&lt;br&gt;&lt;/font&gt;" style="ellipse;whiteSpace=wrap;html=1;aspect=fixed;" vertex="1" parent="1">
          <mxGeometry x="620" y="220" width="40" height="40" as="geometry" />
        </mxCell>
        <mxCell id="oDPLvCCYhihSEAugSSSw-38" value="" style="edgeStyle=orthogonalEdgeStyle;rounded=0;orthogonalLoop=1;jettySize=auto;html=1;fontSize=7;" edge="1" parent="1" source="oDPLvCCYhihSEAugSSSw-31" target="oDPLvCCYhihSEAugSSSw-29">
          <mxGeometry relative="1" as="geometry">
            <Array as="points">
              <mxPoint x="670" y="240" />
            </Array>
          </mxGeometry>
        </mxCell>
        <mxCell id="oDPLvCCYhihSEAugSSSw-31" value="&lt;font style=&quot;font-size: 7px;&quot;&gt;F01000&lt;br&gt;C00100&lt;br&gt;&lt;/font&gt;" style="ellipse;whiteSpace=wrap;html=1;aspect=fixed;" vertex="1" parent="1">
          <mxGeometry x="680" y="250" width="40" height="40" as="geometry" />
        </mxCell>
        <mxCell id="oDPLvCCYhihSEAugSSSw-37" value="" style="edgeStyle=orthogonalEdgeStyle;rounded=0;orthogonalLoop=1;jettySize=auto;html=1;fontSize=7;" edge="1" parent="1" source="oDPLvCCYhihSEAugSSSw-33" target="oDPLvCCYhihSEAugSSSw-31">
          <mxGeometry relative="1" as="geometry">
            <Array as="points">
              <mxPoint x="690" y="300" />
            </Array>
          </mxGeometry>
        </mxCell>
        <mxCell id="oDPLvCCYhihSEAugSSSw-33" value="&lt;font style=&quot;font-size: 7px;&quot;&gt;F01000&lt;br&gt;C01000&lt;br&gt;&lt;/font&gt;" style="ellipse;whiteSpace=wrap;html=1;aspect=fixed;" vertex="1" parent="1">
          <mxGeometry x="710" y="300" width="40" height="40" as="geometry" />
        </mxCell>
        <mxCell id="oDPLvCCYhihSEAugSSSw-36" value="" style="edgeStyle=orthogonalEdgeStyle;rounded=0;orthogonalLoop=1;jettySize=auto;html=1;fontSize=7;" edge="1" parent="1" source="oDPLvCCYhihSEAugSSSw-34" target="oDPLvCCYhihSEAugSSSw-33">
          <mxGeometry relative="1" as="geometry" />
        </mxCell>
        <mxCell id="oDPLvCCYhihSEAugSSSw-34" value="&lt;font style=&quot;font-size: 7px;&quot;&gt;F01000&lt;br&gt;C10000&lt;br&gt;&lt;/font&gt;" style="ellipse;whiteSpace=wrap;html=1;aspect=fixed;" vertex="1" parent="1">
          <mxGeometry x="740" y="360" width="40" height="40" as="geometry" />
        </mxCell>
        <mxCell id="oDPLvCCYhihSEAugSSSw-65" value="" style="edgeStyle=orthogonalEdgeStyle;rounded=0;orthogonalLoop=1;jettySize=auto;html=1;fontSize=7;entryX=0.5;entryY=0;entryDx=0;entryDy=0;" edge="1" parent="1" source="oDPLvCCYhihSEAugSSSw-41" target="oDPLvCCYhihSEAugSSSw-63">
          <mxGeometry relative="1" as="geometry" />
        </mxCell>
        <mxCell id="oDPLvCCYhihSEAugSSSw-41" value="&lt;font style=&quot;font-size: 7px;&quot;&gt;F00100&lt;br&gt;C00001&lt;br&gt;&lt;/font&gt;" style="ellipse;whiteSpace=wrap;html=1;aspect=fixed;" vertex="1" parent="1">
          <mxGeometry x="250" y="170" width="40" height="40" as="geometry" />
        </mxCell>
        <mxCell id="oDPLvCCYhihSEAugSSSw-85" value="" style="edgeStyle=orthogonalEdgeStyle;rounded=0;orthogonalLoop=1;jettySize=auto;html=1;fontSize=7;" edge="1" parent="1" source="oDPLvCCYhihSEAugSSSw-43" target="oDPLvCCYhihSEAugSSSw-41">
          <mxGeometry relative="1" as="geometry" />
        </mxCell>
        <mxCell id="oDPLvCCYhihSEAugSSSw-43" value="&lt;font style=&quot;font-size: 7px;&quot;&gt;F00100&lt;br&gt;C00010&lt;br&gt;&lt;/font&gt;" style="ellipse;whiteSpace=wrap;html=1;aspect=fixed;" vertex="1" parent="1">
          <mxGeometry x="320" y="170" width="40" height="40" as="geometry" />
        </mxCell>
        <mxCell id="oDPLvCCYhihSEAugSSSw-53" value="" style="edgeStyle=orthogonalEdgeStyle;rounded=0;orthogonalLoop=1;jettySize=auto;html=1;fontSize=7;" edge="1" parent="1" source="oDPLvCCYhihSEAugSSSw-45" target="oDPLvCCYhihSEAugSSSw-43">
          <mxGeometry relative="1" as="geometry" />
        </mxCell>
        <mxCell id="oDPLvCCYhihSEAugSSSw-45" value="&lt;font style=&quot;font-size: 7px;&quot;&gt;F00100&lt;br&gt;C00100&lt;br&gt;&lt;/font&gt;" style="ellipse;whiteSpace=wrap;html=1;aspect=fixed;" vertex="1" parent="1">
          <mxGeometry x="385" y="170" width="40" height="40" as="geometry" />
        </mxCell>
        <mxCell id="oDPLvCCYhihSEAugSSSw-52" value="" style="edgeStyle=orthogonalEdgeStyle;rounded=0;orthogonalLoop=1;jettySize=auto;html=1;fontSize=7;" edge="1" parent="1" source="oDPLvCCYhihSEAugSSSw-47" target="oDPLvCCYhihSEAugSSSw-45">
          <mxGeometry relative="1" as="geometry" />
        </mxCell>
        <mxCell id="oDPLvCCYhihSEAugSSSw-47" value="&lt;font style=&quot;font-size: 7px;&quot;&gt;F00100&lt;br&gt;C01000&lt;br&gt;&lt;/font&gt;" style="ellipse;whiteSpace=wrap;html=1;aspect=fixed;" vertex="1" parent="1">
          <mxGeometry x="450" y="160" width="40" height="40" as="geometry" />
        </mxCell>
        <mxCell id="oDPLvCCYhihSEAugSSSw-51" value="" style="edgeStyle=orthogonalEdgeStyle;rounded=0;orthogonalLoop=1;jettySize=auto;html=1;fontSize=7;" edge="1" parent="1" source="oDPLvCCYhihSEAugSSSw-49" target="oDPLvCCYhihSEAugSSSw-47">
          <mxGeometry relative="1" as="geometry" />
        </mxCell>
        <mxCell id="oDPLvCCYhihSEAugSSSw-49" value="&lt;font style=&quot;font-size: 7px;&quot;&gt;F00100&lt;br&gt;C10000&lt;br&gt;&lt;/font&gt;" style="ellipse;whiteSpace=wrap;html=1;aspect=fixed;" vertex="1" parent="1">
          <mxGeometry x="510" y="160" width="40" height="40" as="geometry" />
        </mxCell>
        <mxCell id="oDPLvCCYhihSEAugSSSw-89" value="" style="edgeStyle=orthogonalEdgeStyle;rounded=0;orthogonalLoop=1;jettySize=auto;html=1;fontSize=7;" edge="1" parent="1" source="oDPLvCCYhihSEAugSSSw-55" target="oDPLvCCYhihSEAugSSSw-74">
          <mxGeometry relative="1" as="geometry" />
        </mxCell>
        <mxCell id="oDPLvCCYhihSEAugSSSw-55" value="&lt;font style=&quot;font-size: 7px;&quot;&gt;F00010&lt;br&gt;C00001&lt;br&gt;&lt;/font&gt;" style="ellipse;whiteSpace=wrap;html=1;aspect=fixed;" vertex="1" parent="1">
          <mxGeometry x="30" y="340" width="40" height="40" as="geometry" />
        </mxCell>
        <mxCell id="oDPLvCCYhihSEAugSSSw-72" value="" style="edgeStyle=orthogonalEdgeStyle;rounded=0;orthogonalLoop=1;jettySize=auto;html=1;fontSize=7;entryX=0.5;entryY=0;entryDx=0;entryDy=0;" edge="1" parent="1" source="oDPLvCCYhihSEAugSSSw-57" target="oDPLvCCYhihSEAugSSSw-55">
          <mxGeometry relative="1" as="geometry" />
        </mxCell>
        <mxCell id="oDPLvCCYhihSEAugSSSw-57" value="&lt;font style=&quot;font-size: 7px;&quot;&gt;F00010&lt;br&gt;C00010&lt;br&gt;&lt;/font&gt;" style="ellipse;whiteSpace=wrap;html=1;aspect=fixed;" vertex="1" parent="1">
          <mxGeometry x="60" y="280" width="40" height="40" as="geometry" />
        </mxCell>
        <mxCell id="oDPLvCCYhihSEAugSSSw-86" value="" style="edgeStyle=orthogonalEdgeStyle;rounded=0;orthogonalLoop=1;jettySize=auto;html=1;fontSize=7;" edge="1" parent="1" source="oDPLvCCYhihSEAugSSSw-59" target="oDPLvCCYhihSEAugSSSw-57">
          <mxGeometry relative="1" as="geometry" />
        </mxCell>
        <mxCell id="oDPLvCCYhihSEAugSSSw-59" value="&lt;font style=&quot;font-size: 7px;&quot;&gt;F00010&lt;br&gt;C00100&lt;br&gt;&lt;/font&gt;" style="ellipse;whiteSpace=wrap;html=1;aspect=fixed;" vertex="1" parent="1">
          <mxGeometry x="60" y="210" width="40" height="40" as="geometry" />
        </mxCell>
        <mxCell id="oDPLvCCYhihSEAugSSSw-67" value="" style="edgeStyle=orthogonalEdgeStyle;rounded=0;orthogonalLoop=1;jettySize=auto;html=1;fontSize=7;entryX=0.5;entryY=0;entryDx=0;entryDy=0;" edge="1" parent="1" source="oDPLvCCYhihSEAugSSSw-61" target="oDPLvCCYhihSEAugSSSw-59">
          <mxGeometry relative="1" as="geometry" />
        </mxCell>
        <mxCell id="oDPLvCCYhihSEAugSSSw-61" value="&lt;font style=&quot;font-size: 7px;&quot;&gt;F00010&lt;br&gt;C01000&lt;br&gt;&lt;/font&gt;" style="ellipse;whiteSpace=wrap;html=1;aspect=fixed;" vertex="1" parent="1">
          <mxGeometry x="110" y="180" width="40" height="40" as="geometry" />
        </mxCell>
        <mxCell id="oDPLvCCYhihSEAugSSSw-66" value="" style="edgeStyle=orthogonalEdgeStyle;rounded=0;orthogonalLoop=1;jettySize=auto;html=1;fontSize=7;entryX=0.5;entryY=0;entryDx=0;entryDy=0;" edge="1" parent="1" source="oDPLvCCYhihSEAugSSSw-63" target="oDPLvCCYhihSEAugSSSw-61">
          <mxGeometry relative="1" as="geometry" />
        </mxCell>
        <mxCell id="oDPLvCCYhihSEAugSSSw-63" value="&lt;font style=&quot;font-size: 7px;&quot;&gt;F00010&lt;br&gt;C10000&lt;br&gt;&lt;/font&gt;" style="ellipse;whiteSpace=wrap;html=1;aspect=fixed;" vertex="1" parent="1">
          <mxGeometry x="170" y="170" width="40" height="40" as="geometry" />
        </mxCell>
        <mxCell id="oDPLvCCYhihSEAugSSSw-90" value="" style="edgeStyle=orthogonalEdgeStyle;rounded=0;orthogonalLoop=1;jettySize=auto;html=1;fontSize=7;" edge="1" parent="1" source="oDPLvCCYhihSEAugSSSw-74" target="oDPLvCCYhihSEAugSSSw-83">
          <mxGeometry relative="1" as="geometry" />
        </mxCell>
        <mxCell id="oDPLvCCYhihSEAugSSSw-74" value="&lt;font style=&quot;font-size: 7px;&quot;&gt;F00100&lt;br&gt;C00001&lt;br&gt;&lt;/font&gt;" style="ellipse;whiteSpace=wrap;html=1;aspect=fixed;" vertex="1" parent="1">
          <mxGeometry x="50" y="410" width="40" height="40" as="geometry" />
        </mxCell>
        <mxCell id="oDPLvCCYhihSEAugSSSw-75" value="&lt;font style=&quot;font-size: 7px;&quot;&gt;F00010&lt;br&gt;C00001&lt;br&gt;&lt;/font&gt;" style="ellipse;whiteSpace=wrap;html=1;aspect=fixed;" vertex="1" parent="1">
          <mxGeometry x="400" y="430" width="40" height="40" as="geometry" />
        </mxCell>
        <mxCell id="oDPLvCCYhihSEAugSSSw-76" value="" style="edgeStyle=orthogonalEdgeStyle;rounded=0;orthogonalLoop=1;jettySize=auto;html=1;fontSize=7;entryX=0.5;entryY=0;entryDx=0;entryDy=0;" edge="1" parent="1" source="oDPLvCCYhihSEAugSSSw-77" target="oDPLvCCYhihSEAugSSSw-75">
          <mxGeometry relative="1" as="geometry" />
        </mxCell>
        <mxCell id="oDPLvCCYhihSEAugSSSw-77" value="&lt;font style=&quot;font-size: 7px;&quot;&gt;F00010&lt;br&gt;C00010&lt;br&gt;&lt;/font&gt;" style="ellipse;whiteSpace=wrap;html=1;aspect=fixed;" vertex="1" parent="1">
          <mxGeometry x="340" y="390" width="40" height="40" as="geometry" />
        </mxCell>
        <mxCell id="oDPLvCCYhihSEAugSSSw-78" value="" style="edgeStyle=orthogonalEdgeStyle;rounded=0;orthogonalLoop=1;jettySize=auto;html=1;fontSize=7;entryX=0;entryY=0.5;entryDx=0;entryDy=0;" edge="1" parent="1" source="oDPLvCCYhihSEAugSSSw-79" target="oDPLvCCYhihSEAugSSSw-77">
          <mxGeometry relative="1" as="geometry" />
        </mxCell>
        <mxCell id="oDPLvCCYhihSEAugSSSw-79" value="&lt;font style=&quot;font-size: 7px;&quot;&gt;F00010&lt;br&gt;C00100&lt;br&gt;&lt;/font&gt;" style="ellipse;whiteSpace=wrap;html=1;aspect=fixed;" vertex="1" parent="1">
          <mxGeometry x="270" y="390" width="40" height="40" as="geometry" />
        </mxCell>
        <mxCell id="oDPLvCCYhihSEAugSSSw-87" value="" style="edgeStyle=orthogonalEdgeStyle;rounded=0;orthogonalLoop=1;jettySize=auto;html=1;fontSize=7;" edge="1" parent="1" source="oDPLvCCYhihSEAugSSSw-81" target="oDPLvCCYhihSEAugSSSw-79">
          <mxGeometry relative="1" as="geometry" />
        </mxCell>
        <mxCell id="oDPLvCCYhihSEAugSSSw-81" value="&lt;font style=&quot;font-size: 7px;&quot;&gt;F00010&lt;br&gt;C01000&lt;br&gt;&lt;/font&gt;" style="ellipse;whiteSpace=wrap;html=1;aspect=fixed;" vertex="1" parent="1">
          <mxGeometry x="190" y="400" width="40" height="40" as="geometry" />
        </mxCell>
        <mxCell id="oDPLvCCYhihSEAugSSSw-88" value="" style="edgeStyle=orthogonalEdgeStyle;rounded=0;orthogonalLoop=1;jettySize=auto;html=1;fontSize=7;" edge="1" parent="1" source="oDPLvCCYhihSEAugSSSw-83" target="oDPLvCCYhihSEAugSSSw-81">
          <mxGeometry relative="1" as="geometry" />
        </mxCell>
        <mxCell id="oDPLvCCYhihSEAugSSSw-83" value="&lt;font style=&quot;font-size: 7px;&quot;&gt;F00010&lt;br&gt;C10000&lt;br&gt;&lt;/font&gt;" style="ellipse;whiteSpace=wrap;html=1;aspect=fixed;" vertex="1" parent="1">
          <mxGeometry x="130" y="430" width="40" height="40" as="geometry" />
        </mxCell>
        <mxCell id="oDPLvCCYhihSEAugSSSw-92" value="" style="curved=1;endArrow=classic;html=1;rounded=0;fontSize=7;exitX=0;exitY=0;exitDx=0;exitDy=0;entryX=0;entryY=0.5;entryDx=0;entryDy=0;" edge="1" parent="1" source="oDPLvCCYhihSEAugSSSw-4" target="oDPLvCCYhihSEAugSSSw-4">
          <mxGeometry width="50" height="50" relative="1" as="geometry">
            <mxPoint x="240" y="520" as="sourcePoint" />
            <mxPoint x="240" y="570" as="targetPoint" />
            <Array as="points">
              <mxPoint x="390" y="510" />
              <mxPoint x="350" y="500" />
              <mxPoint x="280" y="550" />
              <mxPoint x="310" y="570" />
            </Array>
          </mxGeometry>
        </mxCell>
        <mxCell id="oDPLvCCYhihSEAugSSSw-93" value="" style="curved=1;endArrow=classic;html=1;rounded=0;fontSize=7;exitX=0;exitY=1;exitDx=0;exitDy=0;entryX=0.5;entryY=0;entryDx=0;entryDy=0;" edge="1" parent="1" source="oDPLvCCYhihSEAugSSSw-4" target="oDPLvCCYhihSEAugSSSw-10">
          <mxGeometry width="50" height="50" relative="1" as="geometry">
            <mxPoint x="330" y="630" as="sourcePoint" />
            <mxPoint x="380" y="580" as="targetPoint" />
            <Array as="points">
              <mxPoint x="400" y="600" />
            </Array>
          </mxGeometry>
        </mxCell>
        <mxCell id="oDPLvCCYhihSEAugSSSw-94" value="" style="curved=1;endArrow=classic;html=1;rounded=0;fontSize=7;exitX=0;exitY=1;exitDx=0;exitDy=0;entryX=0.015;entryY=0.337;entryDx=0;entryDy=0;entryPerimeter=0;" edge="1" parent="1" target="oDPLvCCYhihSEAugSSSw-11">
          <mxGeometry width="50" height="50" relative="1" as="geometry">
            <mxPoint x="473.66233047033546" y="572.6776695296645" as="sourcePoint" />
            <mxPoint x="471.34" y="620" as="targetPoint" />
            <Array as="points">
              <mxPoint x="500" y="580" />
            </Array>
          </mxGeometry>
        </mxCell>
        <mxCell id="oDPLvCCYhihSEAugSSSw-95" value="" style="endArrow=classic;html=1;rounded=0;fontSize=7;exitX=0.5;exitY=1;exitDx=0;exitDy=0;entryX=0.394;entryY=-0.021;entryDx=0;entryDy=0;entryPerimeter=0;" edge="1" parent="1" source="oDPLvCCYhihSEAugSSSw-75" target="oDPLvCCYhihSEAugSSSw-4">
          <mxGeometry width="50" height="50" relative="1" as="geometry">
            <mxPoint x="430" y="520" as="sourcePoint" />
            <mxPoint x="480" y="470" as="targetPoint" />
          </mxGeometry>
        </mxCell>
      </root>
    </mxGraphModel>
  </diagram>
</mxfile>
